<svg width="280" height="294" viewBox="0 0 280 294" fill="none" xmlns="http://www.w3.org/2000/svg">
    <g filter="url(#filter0_d_51_1143)">
        <ellipse cx="140" cy="136.768" rx="110" ry="110.768" fill="url(#paint0_linear_51_1143)" />
        <path
            d="M100.3 93.5642C99.2842 91.5285 96.6395 90.9669 94.853 92.379C90.1441 96.1012 81.5444 102.631 74.8815 106.178C68.7951 109.418 60.0616 112.437 54.4202 114.231C51.5335 115.149 50.0742 118.442 51.4055 121.167L52.7435 123.906C53.8058 126.08 56.2972 127.121 58.5527 126.249C63.6516 124.278 72.8122 120.405 80.791 115.271C89.9048 109.407 97.1439 100.796 99.9698 97.1755C100.779 96.1386 100.886 94.7387 100.3 93.5642Z"
            fill="#7B4203" />
        <path
            d="M180.717 93.5677C181.733 91.5302 184.381 90.9682 186.169 92.3816C190.878 96.1042 199.476 102.632 206.137 106.178C212.223 109.418 220.957 112.437 226.598 114.231C229.485 115.149 230.944 118.442 229.613 121.167L228.134 124.195C227.134 126.241 224.856 127.294 222.699 126.568C217.849 124.934 208.951 121.418 200.228 115.271C190.434 108.371 183.721 100.542 181.053 97.1682C180.238 96.1379 180.131 94.7406 180.717 93.5677Z"
            fill="#7B4203" />
        <path fill-rule="evenodd" clip-rule="evenodd"
            d="M127.986 148.225C127.986 146.313 125.357 146.06 124.294 147.649C118.842 155.793 107.915 161.351 95.3241 161.351C82.733 161.351 71.806 155.793 66.3544 147.649C65.2909 146.06 62.6621 146.313 62.6621 148.225C62.6621 163.362 77.2854 175.633 95.3241 175.633C113.363 175.633 127.986 163.362 127.986 148.225Z"
            fill="#905306" />
        <path fill-rule="evenodd" clip-rule="evenodd"
            d="M215.085 148.225C215.085 146.313 212.456 146.06 211.392 147.649C205.941 155.793 195.014 161.351 182.423 161.351C169.832 161.351 158.905 155.793 153.453 147.649C152.39 146.06 149.761 146.313 149.761 148.225C149.761 163.362 164.384 175.633 182.423 175.633C200.461 175.633 215.085 163.362 215.085 148.225Z"
            fill="#905306" />
        <path
            d="M123.187 271.043C123.917 268.655 127.371 266.257 127.371 266.257C127.371 266.257 132.062 264.63 134.345 262.535C136.115 260.912 138.007 257.572 138.007 257.572V133.311C138.007 133.311 134.912 129.134 132.079 129.057C129.134 128.977 125.802 133.311 125.802 133.311C125.802 133.311 123.187 147.947 123.187 157.419C123.187 166.104 123.728 172.218 120.223 180.64C118.498 184.784 116.28 186.461 114.469 190.567C109.996 200.715 114.416 208.383 110.459 218.751C107.6 226.245 104.718 229.901 100.173 236.477C97.5494 240.273 93.0243 245.872 93.0243 245.872V252.608L110.459 275.652H123.187C123.187 275.652 122.661 272.762 123.187 271.043Z"
            fill="url(#paint1_linear_51_1143)" />
        <g filter="url(#filter1_f_51_1143)">
            <path
                d="M126.835 271.825C127.363 269.842 129.862 267.851 129.862 267.851C129.862 267.851 133.255 266.499 134.907 264.759C136.187 263.412 137.556 260.638 137.556 260.638V142.938C137.556 142.938 135.316 139.468 133.267 139.405C131.137 139.338 128.727 142.938 128.727 142.938C128.727 142.938 126.835 155.092 126.835 162.957C126.835 170.17 127.226 175.247 124.69 182.24C123.443 185.682 121.838 187.074 120.528 190.484C117.292 198.911 120.489 205.279 117.627 213.889C115.559 220.112 113.474 223.148 110.186 228.609C108.288 231.761 105.014 250.922 105.014 250.922V256.516L117.627 275.652H126.835C126.835 275.652 126.454 273.252 126.835 271.825Z"
                fill="#FFD55C" fill-opacity="0.68" />
        </g>
        <path
            d="M157.509 271.043C156.779 268.655 153.325 266.257 153.325 266.257C153.325 266.257 148.635 264.63 146.351 262.535C144.581 260.912 142.689 257.572 142.689 257.572V133.311C142.689 133.311 145.785 129.134 148.617 129.057C151.562 128.977 154.894 133.311 154.894 133.311C154.894 133.311 157.509 147.947 157.509 157.419C157.509 166.104 156.968 172.218 160.473 180.64C162.198 184.784 164.417 186.461 166.227 190.567C170.701 200.715 166.281 208.383 170.237 218.751C173.096 226.245 175.978 229.901 180.524 236.477C183.147 240.273 187.672 245.872 187.672 245.872V252.608L170.237 275.652H157.509C157.509 275.652 158.035 272.762 157.509 271.043Z"
            fill="url(#paint2_linear_51_1143)" />
        <g filter="url(#filter2_f_51_1143)">
            <path
                d="M153.862 271.825C153.333 269.842 150.835 267.851 150.835 267.851C150.835 267.851 147.442 266.499 145.789 264.759C144.509 263.412 143.141 260.638 143.141 260.638V142.938C143.141 142.938 145.38 139.468 147.429 139.405C149.559 139.338 151.97 142.938 151.97 142.938C151.97 142.938 153.862 155.092 153.862 162.957C153.862 170.17 153.47 175.247 156.006 182.24C157.253 185.682 158.859 187.074 160.168 190.484C163.405 198.911 160.207 205.279 163.069 213.889C165.138 220.112 167.222 223.148 170.511 228.609C172.408 231.761 175.682 250.922 175.682 250.922V256.516L163.069 275.652H153.862C153.862 275.652 154.242 273.252 153.862 271.825Z"
                fill="#FFD55C" fill-opacity="0.68" />
        </g>
        <path
            d="M121.756 271.604L125.305 269C126.028 268.469 127.031 269.086 126.883 269.971L126.697 271.078C126.677 271.202 126.633 271.321 126.568 271.429L118.087 285.509C117.903 285.813 117.573 285.997 117.218 285.993L66.4381 285.389C65.9673 285.384 65.5642 285.05 65.4701 284.589L60.6403 260.895C60.5487 260.445 60.7747 259.991 61.1887 259.793L94.5824 243.82C94.6857 243.771 94.7797 243.704 94.8604 243.623L95.318 243.162C96.0533 242.422 97.2888 243.161 96.9839 244.159L95.6262 248.604C95.5611 248.817 95.5669 249.04 95.6496 249.246C96.3579 251.017 100.026 259.814 104.556 263.976C109.262 268.299 118.736 271.147 120.917 271.761C121.207 271.843 121.513 271.783 121.756 271.604Z"
            fill="url(#paint3_linear_51_1143)" />
        <path
            d="M158.504 271.604L154.955 269C154.232 268.469 153.229 269.086 153.377 269.971L153.562 271.078C153.583 271.202 153.627 271.321 153.692 271.429L162.173 285.509C162.356 285.813 162.687 285.997 163.042 285.993L213.822 285.389C214.292 285.384 214.696 285.05 214.79 284.589L219.619 260.895C219.711 260.445 219.485 259.991 219.071 259.793L185.677 243.82C185.574 243.771 185.48 243.704 185.399 243.623L184.942 243.162C184.207 242.422 182.971 243.161 183.276 244.159L184.634 248.604C184.699 248.817 184.693 249.04 184.61 249.246C183.902 251.017 180.234 259.814 175.703 263.976C170.998 268.299 161.524 271.147 159.343 271.761C159.052 271.843 158.747 271.783 158.504 271.604Z"
            fill="url(#paint4_linear_51_1143)" />
    </g>
    <defs>
        <filter id="filter0_d_51_1143" x="0" y="0" width="280" height="320" filterUnits="userSpaceOnUse"
            color-interpolation-filters="sRGB">
            <feFlood flood-opacity="0" result="BackgroundImageFix" />
            <feColorMatrix in="SourceAlpha" type="matrix" values="0 0 0 0 0 0 0 0 0 0 0 0 0 0 0 0 0 0 127 0"
                result="hardAlpha" />
            <feOffset dy="4" />
            <feGaussianBlur stdDeviation="15" />
            <feComposite in2="hardAlpha" operator="out" />
            <feColorMatrix type="matrix" values="0 0 0 0 0 0 0 0 0 0 0 0 0 0 0 0 0 0 0.08 0" />
            <feBlend mode="normal" in2="BackgroundImageFix" result="effect1_dropShadow_51_1143" />
            <feBlend mode="normal" in="SourceGraphic" in2="effect1_dropShadow_51_1143" result="shape" />
        </filter>
        <filter id="filter1_f_51_1143" x="101.015" y="135.404" width="40.541" height="144.249"
            filterUnits="userSpaceOnUse" color-interpolation-filters="sRGB">
            <feFlood flood-opacity="0" result="BackgroundImageFix" />
            <feBlend mode="normal" in="SourceGraphic" in2="BackgroundImageFix" result="shape" />
            <feGaussianBlur stdDeviation="2" result="effect1_foregroundBlur_51_1143" />
        </filter>
        <filter id="filter2_f_51_1143" x="139.141" y="135.404" width="40.541" height="144.249"
            filterUnits="userSpaceOnUse" color-interpolation-filters="sRGB">
            <feFlood flood-opacity="0" result="BackgroundImageFix" />
            <feBlend mode="normal" in="SourceGraphic" in2="BackgroundImageFix" result="shape" />
            <feGaussianBlur stdDeviation="2" result="effect1_foregroundBlur_51_1143" />
        </filter>
        <linearGradient id="paint0_linear_51_1143" x1="140" y1="26" x2="140" y2="247.536"
            gradientUnits="userSpaceOnUse">
            <stop stop-color="#F1CB04" />
            <stop offset="1" stop-color="#F19204" />
        </linearGradient>
        <linearGradient id="paint1_linear_51_1143" x1="151.258" y1="202.442" x2="93.0243" y2="202.442"
            gradientUnits="userSpaceOnUse">
            <stop stop-color="#F1CB04" />
            <stop offset="1" stop-color="#D58205" />
        </linearGradient>
        <linearGradient id="paint2_linear_51_1143" x1="129.439" y1="202.442" x2="187.672" y2="202.442"
            gradientUnits="userSpaceOnUse">
            <stop stop-color="#F1CB04" />
            <stop offset="1" stop-color="#D58205" />
        </linearGradient>
        <linearGradient id="paint3_linear_51_1143" x1="77.1443" y1="253.895" x2="105.952" y2="296.031"
            gradientUnits="userSpaceOnUse">
            <stop stop-color="#0E4C8E" />
            <stop offset="0.229167" stop-color="#3B7EC2" />
            <stop offset="0.494792" stop-color="#5192D5" />
            <stop offset="0.739583" stop-color="#3B7EC2" />
            <stop offset="1" stop-color="#0E4C8E" />
        </linearGradient>
        <linearGradient id="paint4_linear_51_1143" x1="203.115" y1="253.895" x2="174.308" y2="296.031"
            gradientUnits="userSpaceOnUse">
            <stop stop-color="#0E4C8E" />
            <stop offset="0.229167" stop-color="#3B7EC2" />
            <stop offset="0.494792" stop-color="#5192D5" />
            <stop offset="0.739583" stop-color="#3B7EC2" />
            <stop offset="1" stop-color="#0E4C8E" />
        </linearGradient>
    </defs>
</svg>