<svg viewBox="0 0 267 267" fill="none" xmlns="http://www.w3.org/2000/svg">
    <g filter="url(#filter0_d_56_4042)">
        <ellipse cx="133.401" cy="129" rx="99.8368" ry="100" fill="url(#paint0_linear_56_4042)" />
        <path
            d="M74.3961 61.1562C75.8436 56.6941 82.1563 56.6941 83.6038 61.1562L90.2626 81.6834C90.9098 83.6787 92.7687 85.03 94.8664 85.03H116.432C121.118 85.03 123.069 91.0257 119.28 93.7834L101.819 106.49C100.126 107.722 99.4171 109.904 100.063 111.897L106.729 132.446C108.176 136.907 103.069 140.612 99.2777 137.853L81.8478 125.169C80.1502 123.933 77.8496 123.933 76.152 125.169L58.7222 137.853C54.9306 140.612 49.8235 136.907 51.2704 132.446L57.9364 111.897C58.5827 109.904 57.8741 107.722 56.1805 106.49L38.7203 93.7834C34.9308 91.0257 36.8815 85.03 41.5682 85.03H63.1334C65.2311 85.03 67.09 83.6787 67.7373 81.6834L74.3961 61.1562Z"
            fill="url(#paint1_linear_56_4042)" />
        <path
            d="M184.396 61.1562C185.844 56.6941 192.156 56.6941 193.604 61.1562L200.263 81.6834C200.91 83.6787 202.769 85.03 204.866 85.03H226.432C231.118 85.03 233.069 91.0257 229.28 93.7834L211.819 106.49C210.126 107.722 209.417 109.904 210.063 111.897L216.729 132.446C218.176 136.907 213.069 140.612 209.278 137.853L191.848 125.169C190.15 123.933 187.85 123.933 186.152 125.169L168.722 137.853C164.931 140.612 159.823 136.907 161.27 132.446L167.936 111.897C168.583 109.904 167.874 107.722 166.181 106.49L148.72 93.7834C144.931 91.0257 146.882 85.03 151.568 85.03H173.133C175.231 85.03 177.09 83.6787 177.737 81.6834L184.396 61.1562Z"
            fill="url(#paint2_linear_56_4042)" />
        <path
            d="M134 199.06C154.909 199.06 172.431 183.745 177.049 163.159C178.366 157.291 173.363 152.354 167.349 152.354H100.651C94.6364 152.354 89.6341 157.291 90.9507 163.159C95.5688 183.745 113.09 199.06 134 199.06Z"
            fill="#F19204" />
        <path
            d="M134 201.455C154.457 201.455 171.672 187.546 176.732 168.654C178.361 162.569 172.918 157.491 166.628 157.831C157.247 158.338 144.006 158.94 134 158.94C123.993 158.94 110.752 158.338 101.372 157.831C95.0817 157.491 89.6384 162.569 91.2681 168.654C96.3278 187.546 113.542 201.455 134 201.455Z"
            fill="#454545" />
        <path
            d="M90.9561 161.249C90.9561 158.402 93.3961 156.165 96.2337 156.396C104.758 157.09 121.828 158.341 133.999 158.341C146.171 158.341 163.241 157.09 171.765 156.396C174.603 156.165 177.043 158.402 177.043 161.249V164.994C177.043 167.371 175.326 169.392 172.973 169.734C164.963 170.898 146.814 173.312 133.999 173.312C121.185 173.312 103.036 170.898 95.0255 169.734C92.6728 169.392 90.9561 167.371 90.9561 164.994V161.249Z"
            fill="white" />
        <mask id="mask0_56_4042" style="mask-type:alpha" maskUnits="userSpaceOnUse" x="90" y="157" width="88"
            height="45">
            <path
                d="M134 201.455C154.457 201.455 171.672 187.546 176.732 168.654C178.361 162.569 172.918 157.491 166.628 157.831C157.247 158.338 144.006 158.94 134 158.94C123.993 158.94 110.752 158.338 101.372 157.831C95.0817 157.491 89.6384 162.569 91.2681 168.654C96.3278 187.546 113.542 201.455 134 201.455Z"
                fill="#040404" />
        </mask>
        <g mask="url(#mask0_56_4042)">
            <ellipse cx="133.999" cy="217.024" rx="38.2608" ry="38.3234" fill="#E76464" />
        </g>
    </g>
    <defs>
        <filter id="filter0_d_56_4042" x="0.564453" y="0.4" width="265.674" height="266" filterUnits="userSpaceOnUse"
            color-interpolation-filters="sRGB">
            <feFlood flood-opacity="0" result="BackgroundImageFix" />
            <feColorMatrix in="SourceAlpha" type="matrix" values="0 0 0 0 0 0 0 0 0 0 0 0 0 0 0 0 0 0 127 0"
                result="hardAlpha" />
            <feOffset dy="4.4" />
            <feGaussianBlur stdDeviation="16.5" />
            <feComposite in2="hardAlpha" operator="out" />
            <feColorMatrix type="matrix" values="0 0 0 0 0 0 0 0 0 0 0 0 0 0 0 0 0 0 0.08 0" />
            <feBlend mode="normal" in2="BackgroundImageFix" result="effect1_dropShadow_56_4042" />
            <feBlend mode="normal" in="SourceGraphic" in2="effect1_dropShadow_56_4042" result="shape" />
        </filter>
        <linearGradient id="paint0_linear_56_4042" x1="133.401" y1="29" x2="133.401" y2="229"
            gradientUnits="userSpaceOnUse">
            <stop stop-color="#F1CB04" />
            <stop offset="1" stop-color="#F19204" />
        </linearGradient>
        <linearGradient id="paint1_linear_56_4042" x1="78.9999" y1="46.9639" x2="78.9999" y2="157.144"
            gradientUnits="userSpaceOnUse">
            <stop stop-color="#FFF1AA" />
            <stop offset="1" stop-color="#FDD609" />
        </linearGradient>
        <linearGradient id="paint2_linear_56_4042" x1="189" y1="46.9639" x2="189" y2="157.144"
            gradientUnits="userSpaceOnUse">
            <stop stop-color="#FFF1AA" />
            <stop offset="1" stop-color="#FDD609" />
        </linearGradient>
    </defs>
</svg>