<svg viewBox="0 0 280 280" fill="none" xmlns="http://www.w3.org/2000/svg">
    <g filter="url(#filter0_d_51_2214)">
        <circle cx="140" cy="136" r="110" fill="url(#paint0_linear_51_2214)" />
        <path
            d="M219.877 79.4848C219.566 81.5707 217.409 82.8325 215.425 82.1116C209.997 80.139 199.935 76.6895 192.634 75.398C186.089 74.2406 177.21 74.0116 171.465 74.0029C168.455 73.9983 166.076 71.3311 166.494 68.3464L166.796 66.1884C167.133 63.7775 169.201 62.0114 171.628 62.1588C176.955 62.4822 186.468 63.3503 195.291 65.6443C205.498 68.2978 214.815 73.9391 218.503 76.3519C219.543 77.0325 220.06 78.2578 219.877 79.4848Z"
            fill="#7B4203" />
        <path
            d="M59.8488 79.9447C60.1961 82.0248 62.3751 83.2488 64.346 82.4935C69.7394 80.4264 79.7388 76.8018 87.0171 75.3831C93.5403 74.1116 102.414 73.7277 108.158 73.6187C111.168 73.5616 113.5 70.8533 113.03 67.8763L112.69 65.7239C112.31 63.3193 110.213 61.5896 107.788 61.7793C102.468 62.1956 92.9719 63.2296 84.1893 65.6773C74.0306 68.5085 64.8137 74.3115 61.1685 76.7883C60.1403 77.487 59.6445 78.7211 59.8488 79.9447Z"
            fill="#7B4203" />
        <path fill-rule="evenodd" clip-rule="evenodd"
            d="M179.925 126.391C180.956 125.341 180.956 123.659 179.925 122.609L161.871 104.216C160.834 103.16 160.84 101.466 161.885 100.418L166.353 95.934C167.414 94.8693 169.14 94.8758 170.193 95.9483L188.073 114.164C189.131 115.243 190.869 115.243 191.927 114.164L209.807 95.9483C210.86 94.8758 212.586 94.8693 213.647 95.934L218.115 100.418C219.16 101.466 219.166 103.16 218.129 104.216L200.075 122.609C199.044 123.659 199.044 125.341 200.075 126.391L218.129 144.784C219.166 145.84 219.16 147.534 218.115 148.582L213.647 153.066C212.586 154.131 210.86 154.124 209.807 153.052L191.927 134.836C190.869 133.757 189.131 133.757 188.073 134.836L170.193 153.052C169.14 154.124 167.414 154.131 166.353 153.066L161.885 148.582C160.84 147.534 160.834 145.84 161.871 144.784L179.925 126.391Z"
            fill="#905306" />
        <path fill-rule="evenodd" clip-rule="evenodd"
            d="M79.2412 128.407C80.293 127.353 80.293 125.647 79.2412 124.593L60.9176 106.231C59.8602 105.172 59.8667 103.454 60.932 102.403L65.507 97.8865C66.5641 96.843 68.2657 96.8493 69.3149 97.9008L87.5889 116.212C88.6437 117.269 90.3563 117.269 91.4111 116.212L109.685 97.9008C110.734 96.8493 112.436 96.843 113.493 97.8865L118.068 102.403C119.133 103.454 119.14 105.172 118.082 106.231L99.7588 124.593C98.707 125.647 98.707 127.353 99.7588 128.407L118.082 146.768C119.14 147.828 119.133 149.546 118.068 150.597L113.493 155.113C112.436 156.157 110.734 156.151 109.685 155.099L91.4111 136.788C90.3563 135.731 88.6437 135.731 87.5889 136.788L69.3149 155.099C68.2657 156.151 66.5641 156.157 65.507 155.113L60.932 150.597C59.8667 149.546 59.8602 147.828 60.9176 146.768L79.2412 128.407Z"
            fill="#905306" />
        <circle cx="138.5" cy="199.5" r="30.5" fill="#905306" />
        <g filter="url(#filter1_f_51_2214)">
            <circle cx="138.5" cy="199.5" r="27.5" stroke="#4D2A04" stroke-opacity="0.13" stroke-width="6" />
        </g>
    </g>
    <defs>
        <filter id="filter0_d_51_2214" x="0" y="0" width="280" height="280" filterUnits="userSpaceOnUse"
            color-interpolation-filters="sRGB">
            <feFlood flood-opacity="0" result="BackgroundImageFix" />
            <feColorMatrix in="SourceAlpha" type="matrix" values="0 0 0 0 0 0 0 0 0 0 0 0 0 0 0 0 0 0 127 0"
                result="hardAlpha" />
            <feOffset dy="4" />
            <feGaussianBlur stdDeviation="15" />
            <feComposite in2="hardAlpha" operator="out" />
            <feColorMatrix type="matrix" values="0 0 0 0 0 0 0 0 0 0 0 0 0 0 0 0 0 0 0.08 0" />
            <feBlend mode="normal" in2="BackgroundImageFix" result="effect1_dropShadow_51_2214" />
            <feBlend mode="normal" in="SourceGraphic" in2="effect1_dropShadow_51_2214" result="shape" />
        </filter>
        <filter id="filter1_f_51_2214" x="102" y="163" width="73" height="73" filterUnits="userSpaceOnUse"
            color-interpolation-filters="sRGB">
            <feFlood flood-opacity="0" result="BackgroundImageFix" />
            <feBlend mode="normal" in="SourceGraphic" in2="BackgroundImageFix" result="shape" />
            <feGaussianBlur stdDeviation="3" result="effect1_foregroundBlur_51_2214" />
        </filter>
        <linearGradient id="paint0_linear_51_2214" x1="140" y1="26" x2="140" y2="246" gradientUnits="userSpaceOnUse">
            <stop stop-color="#F1CB04" />
            <stop offset="1" stop-color="#F19204" />
        </linearGradient>
    </defs>
</svg>