<svg width="139" height="30" viewBox="0 0 139 30" fill="none" xmlns="http://www.w3.org/2000/svg">
<path d="M31.8103 2.11401C31.9922 1.8411 32.0739 1.53407 32.0553 1.19293C31.9913 0.920018 31.777 0.749448 31.4717 0.715332C30.6927 0.715332 29.472 0.885902 27.8961 1.15882C23.4142 1.97755 16.0537 3.23977 5.76912 5.01371C4.73067 5.21839 3.96127 5.69599 3.41545 6.51472C2.82413 7.40169 2.97948 7.84517 3.92248 7.84517C5.88119 7.6746 9.57056 7.06055 15.0543 5.9689C11.0372 11.2566 8.39874 14.9068 7.03418 16.9536C4.30505 21.0473 2.14929 24.527 0.648908 27.3925C0.185082 28.2113 0.463428 28.6548 1.48843 28.6548C2.63643 28.6548 3.66528 27.9725 4.55225 26.642L6.07601 24.3564C6.43989 23.8106 6.5078 23.4012 6.36175 23.1283C7.19394 21.6955 8.17636 20.1603 9.24527 18.557C11.656 14.9409 14.8358 10.5402 18.844 5.38896C21.5493 4.77491 23.3348 4.43377 24.2457 4.29731C24.4145 4.53611 24.8156 4.67257 25.3668 4.70668L29.7071 3.5468C30.6043 3.308 31.3327 2.83041 31.8103 2.11401Z" fill="#F9FAFE"/>
<path d="M31.7532 27.0514C32.2215 26.1644 32.5761 25.448 32.9035 24.834C33.7264 23.2306 34.604 21.7296 35.5592 20.2968C35.6957 20.0921 36.0596 19.5463 36.7101 18.6934C37.3607 17.8406 37.7611 17.363 37.8293 17.2607C38.1932 16.7148 38.2884 16.2031 38.1968 15.7255C38.0597 15.3162 37.7269 15.0774 37.1119 15.0774C36.3739 15.0774 34.2518 15.862 30.8276 17.4312C27.5537 18.8981 25.1997 20.0921 23.6836 21.0132C26.227 17.8747 27.8968 15.862 28.6931 14.975L33.4937 9.6191C35.2228 7.64049 36.5697 6.17358 37.4753 5.18428C38.3171 4.22908 38.8039 3.68326 38.9176 3.51269C39.236 3.03509 39.3494 2.55749 39.2578 2.0799C39.2072 1.6023 38.9154 1.3635 38.3824 1.3635C37.7264 1.3635 36.8888 1.94344 35.8923 3.0692L26.2594 13.9516C23.429 17.0901 20.9632 20.2968 18.7799 23.5718C18.6435 23.7764 18.3933 24.1517 18.0932 24.6634C17.7293 25.2092 17.5246 25.5163 17.4791 25.5845C17.1607 26.0621 17.0473 26.5397 17.1617 26.9832C17.3398 27.3925 17.7363 27.5972 18.3513 27.5972C18.6793 27.5972 19.2985 27.222 20.2908 26.4715C20.9599 25.9597 21.6108 25.4139 22.2617 24.8681C24.3966 23.2647 28.071 21.3202 33.2847 19.0346L30.7378 23.1624C28.7185 26.4373 28.5516 28.0407 30.2736 28.0407C30.7656 28.0407 31.2391 27.6996 31.7532 27.0514Z" fill="#F9FAFE"/>
<path d="M52.7875 26.1644C53.0149 25.8233 53.0783 25.4821 52.9778 25.141C52.8317 24.8681 52.5354 24.6975 52.1254 24.6975C51.7974 24.6975 51.2189 24.7657 50.4764 24.834C49.734 24.9022 49.1782 24.9363 48.8502 24.9363C47.6202 24.9363 46.8726 24.4587 46.5481 23.4694C51.8763 21.6273 55.3818 19.444 57.0647 16.9195C57.7015 15.9643 57.8236 15.0432 57.3854 14.2245C56.9472 13.4058 56.2362 12.9964 55.2112 12.9964C53.4482 12.9964 51.4446 13.8492 49.1822 15.5208C47.243 16.9536 45.7276 18.4888 44.6359 20.1262C44.4085 20.4674 44.1311 20.945 43.8675 21.5249H42.9245C42.3505 21.5249 41.9312 21.3543 41.5846 21.0132C41.238 20.6721 40.9418 20.5015 40.6958 20.5015C39.6298 20.5015 38.7784 20.9791 38.1416 21.9343C37.6412 22.6848 37.8879 23.2988 38.9635 23.7764C39.7793 24.1517 40.6906 24.3223 41.7566 24.3223H42.9866C42.8933 26.6761 44.4161 27.836 47.5321 27.836C50.2791 27.836 52.0597 27.2561 52.7875 26.1644ZM53.7348 17.056C52.9843 18.1817 50.9355 19.4098 47.5886 20.7403L47.9979 20.1262C48.612 19.2052 49.3673 18.3182 50.3459 17.4653C51.4381 16.4419 52.3533 15.9302 53.0913 15.9302C53.4193 15.9302 53.6563 16.0667 53.8479 16.2713C53.9119 16.5443 53.9167 16.7831 53.7348 17.056Z" fill="#F9FAFE"/>
<path d="M104.682 4.19497C105.342 3.20566 104.658 2.69395 102.608 2.69395C101.993 2.69395 100.143 2.76218 97.0595 2.89863C93.9938 3.0692 92.4313 3.13743 92.3493 3.13743L91.684 2.96686C91.1465 3.03509 90.6866 3.17155 90.3041 3.37623C89.1699 3.47857 88.3636 3.58091 87.8854 3.68326C86.8425 3.95617 86.1368 4.39965 85.7047 5.04782C85.1361 5.90067 85.4283 6.4465 86.6038 6.65118C84.1918 9.03916 82.6082 10.6766 81.8983 11.4954C79.2045 14.4292 76.5247 17.7724 73.8225 21.4567C73.021 21.7978 72.5294 22.1049 72.3247 22.4119C70.4825 25.1751 69.5689 27.222 69.6022 28.5865C69.6118 29.0641 69.8809 29.337 70.4549 29.337C70.8239 29.337 71.2839 29.2006 71.8758 28.9277C72.3858 28.6548 72.7544 28.3477 72.9591 28.0407C73.0501 27.9042 73.3547 27.3243 73.9777 26.2668C74.496 25.2433 75.0236 24.3905 75.433 23.7764C76.7293 21.8319 78.2396 19.751 80.0231 17.5677C83.8179 17.5336 88.1588 16.9877 92.9638 15.9302C94.5032 15.5891 95.5868 15.0091 96.1327 14.1904C96.724 13.3034 96.4866 12.8599 95.4206 12.8599C94.5462 13.0646 93.9632 13.2011 93.6307 13.2693C90.9846 13.9175 87.2632 14.3951 82.4028 14.7362C85.1101 11.5977 87.8632 8.69802 90.6849 6.00301C95.0079 5.7301 98.6066 5.55953 101.395 5.55953C101.477 5.55953 101.618 5.59364 101.823 5.59364C101.941 5.66187 102.105 5.66187 102.228 5.66187C102.556 5.66187 102.998 5.4913 103.553 5.15016C104.109 4.80902 104.5 4.46788 104.682 4.19497Z" fill="#F9FAFE"/>
<path d="M112.771 24.5611C113.407 23.6059 113.174 23.0942 112.026 23.0942C111.862 23.0942 111.571 23.1624 111.238 23.2306C110.865 23.2988 110.573 23.3671 110.491 23.3671C108.692 23.6059 106.902 23.7082 105.016 23.7082C102.884 23.7082 101.996 23.5035 102.291 23.06C102.805 22.4119 104.294 21.2861 106.757 19.6828C108.405 18.6252 110.053 17.5677 111.742 16.5101C115.343 14.1222 117.66 12.5529 118.716 11.7683C120.742 10.2673 122.207 8.86859 123.026 7.64049C124.754 5.04782 124.02 3.75149 120.904 3.75149C118.854 3.75149 115.542 4.53611 110.993 6.07124C110.146 6.17358 109.394 6.37827 108.716 6.71941C107.596 7.23112 106.886 7.74283 106.567 8.22043C105.817 9.34619 105.986 9.89202 107.093 9.89202C107.462 9.89202 108.509 9.55088 110.194 8.86859C114.024 7.36758 116.925 6.58295 118.811 6.58295C119.795 6.58295 120.032 7.02643 119.464 7.87929C118.508 9.31208 115.358 11.7001 110.118 15.0091C106.44 17.3289 104.364 18.6593 103.809 19.0005C101.104 20.8426 99.3658 22.3437 98.638 23.4353C97.228 25.5504 98.4317 26.5738 102.245 26.5738C105.033 26.5738 107.647 26.4032 110.216 25.9939C111.419 25.7892 112.27 25.3116 112.771 24.5611Z" fill="#F9FAFE"/>
<path d="M133.746 26.1644C133.974 25.8233 134.037 25.4821 133.937 25.141C133.791 24.8681 133.494 24.6975 133.084 24.6975C132.756 24.6975 132.178 24.7657 131.435 24.834C130.693 24.9022 130.137 24.9363 129.809 24.9363C128.579 24.9363 127.832 24.4587 127.507 23.4694C132.835 21.6273 136.341 19.444 138.024 16.9195C138.661 15.9643 138.783 15.0432 138.344 14.2245C137.906 13.4058 137.195 12.9964 136.17 12.9964C134.407 12.9964 132.404 13.8492 130.141 15.5208C128.202 16.9536 126.687 18.4888 125.595 20.1262C125.367 20.4674 125.09 20.945 124.826 21.5249H123.883C123.309 21.5249 122.89 21.3543 122.544 21.0132C122.197 20.6721 121.901 20.5015 121.655 20.5015C120.589 20.5015 119.737 20.9791 119.101 21.9343C118.6 22.6848 118.847 23.2988 119.922 23.7764C120.738 24.1517 121.65 24.3223 122.716 24.3223H123.946C123.852 26.6761 125.375 27.836 128.491 27.836C131.238 27.836 133.019 27.2561 133.746 26.1644ZM134.694 17.056C133.943 18.1817 131.895 19.4098 128.548 20.7403L128.957 20.1262C129.571 19.2052 130.326 18.3182 131.305 17.4653C132.397 16.4419 133.312 15.9302 134.05 15.9302C134.378 15.9302 134.615 16.0667 134.807 16.2713C134.871 16.5443 134.876 16.7831 134.694 17.056Z" fill="#F9FAFE"/>
</svg>
