<svg width="174" height="171" viewBox="0 0 174 171" fill="none" xmlns="http://www.w3.org/2000/svg">
<path fill-rule="evenodd" clip-rule="evenodd" d="M88.3814 0C41.5534 0 3.24919 38.135 3.24919 85.1252C3.24919 97.1953 5.98469 108.624 10.0104 119.242L0.513672 128.738L35.4337 125.361L39.4595 90.4411L30.1249 99.7686C28.6796 95.1013 28.038 90.4411 28.038 85.1252C28.038 52.299 54.9066 25.4233 88.3814 25.4233C121.208 25.4233 148.083 52.299 148.083 85.1252C148.083 117.958 122.66 144.023 90.4754 145.476V170.257C136.662 168.967 173.514 131.312 173.514 85.1252C173.514 38.135 135.372 1.2207e-05 88.3814 1.2207e-05V0Z" fill="#2FBB56"/>
</svg>
