<svg width="163" height="33" viewBox="0 0 163 33" fill="none" xmlns="http://www.w3.org/2000/svg">
<path d="M40.4288 8.07111C41.0656 7.11591 40.892 6.63832 39.99 6.63832C39.17 6.63832 38.2321 7.18414 37.2628 8.20756C34.1183 11.4484 31.1646 14.2799 28.4019 16.702C24.3374 20.2157 21.3152 22.8425 19.2716 24.6164C19.0907 21.4438 19.0062 18.9876 18.977 17.2478C18.9713 16.0879 18.8249 15.508 18.4969 15.508C17.8409 15.508 16.3703 16.3608 14.0032 18.0665C9.05048 21.6826 6.10517 23.7636 5.0398 24.3776C4.71117 23.7636 5.00588 22.399 5.94667 20.2498C6.77823 18.203 7.85131 16.2244 9.07942 14.3822C9.46604 13.8023 10.485 12.3354 12.1772 9.9815C13.8057 7.66174 14.8474 6.16072 15.3023 5.47844C16.4621 3.73862 17.1579 2.51051 17.4487 1.82823C17.7985 0.873041 17.5657 0.361328 16.7457 0.361328C16.1717 0.361328 15.5615 0.600128 14.9561 1.07772C13.1671 2.40817 11.6655 4.04565 10.3464 6.02426C9.89153 6.70655 10.0469 7.15003 10.7669 7.42294C8.51509 10.4932 7.04578 12.5742 6.3635 13.5976C2.54272 19.3287 0.734488 24.0706 1.00253 27.789C0.966649 28.3349 1.29945 28.5737 1.91445 28.5737C2.48845 28.5737 3.52659 28.0619 5.05162 27.0044C9.4582 23.9 12.8542 21.5121 15.2213 19.8063L15.6664 27.3797C15.6764 28.1643 16.0822 28.5395 16.9022 28.5395C17.8042 28.5395 18.6921 28.1302 19.6934 27.2432C20.4353 26.5609 22.7838 24.5141 26.6754 21.1368C30.1982 18.0665 32.9199 15.6444 34.8406 13.8705C37.8535 11.0731 39.7011 9.16276 40.4288 8.07111Z" fill="#F9FAFE"/>
<path d="M46.6573 28.1643C46.8847 27.8232 46.9482 27.482 46.8476 27.1409C46.7015 26.868 46.4052 26.6974 45.9952 26.6974C45.6672 26.6974 45.0888 26.7656 44.3463 26.8338C43.6038 26.9021 43.048 26.9362 42.72 26.9362C41.49 26.9362 40.7424 26.4586 40.418 25.4693C45.7461 23.6271 49.2516 21.4438 50.9346 18.9194C51.5714 17.9642 51.6934 17.0431 51.2553 16.2244C50.8171 15.4056 50.106 14.9963 49.081 14.9963C47.318 14.9963 45.3144 15.8491 43.052 17.5207C41.1128 18.9535 39.5974 20.4886 38.5058 22.1261C38.2783 22.4672 38.0009 22.9448 37.7373 23.5248H36.7943C36.2203 23.5248 35.801 23.3542 35.4545 23.0131C35.1079 22.6719 34.8116 22.5014 34.5656 22.5014C33.4996 22.5014 32.6482 22.979 32.0114 23.9341C31.5111 24.6847 31.7577 25.2987 32.8333 25.7763C33.6491 26.1516 34.5604 26.3221 35.6264 26.3221H36.8564C36.7632 28.676 38.2859 29.8359 41.4019 29.8359C44.1489 29.8359 45.9295 29.2559 46.6573 28.1643ZM47.6046 19.0558C46.8541 20.1816 44.8054 21.4097 41.4584 22.7402L41.8678 22.1261C42.4818 21.205 43.2371 20.3181 44.2157 19.4652C45.308 18.4418 46.2231 17.9301 46.9611 17.9301C47.2891 17.9301 47.5261 18.0665 47.7177 18.2712C47.7817 18.5441 47.7866 18.7829 47.6046 19.0558Z" fill="#F9FAFE"/>
<path d="M72.6798 5.71724C72.9528 5.30787 72.9021 4.83027 72.6555 4.21622C72.3634 3.67039 71.9941 3.36337 71.5021 3.36337C70.9691 3.36337 70.045 4.01153 68.7752 5.23964C64.3561 9.46978 60.6661 13.8364 57.664 18.3394C56.8908 19.4993 55.9039 21.1027 54.7033 23.1495C54.1434 23.5589 53.5201 24.3094 52.815 25.3669C52.0418 26.5268 51.6238 27.5844 51.5792 28.5737C51.4937 29.563 51.8495 30.0747 52.6695 30.0747C52.8745 30.0747 53.1888 29.9723 53.6122 29.7677C53.9719 29.5971 54.2497 29.4265 54.3634 29.2559C54.4316 29.1536 54.5271 28.9489 54.668 28.676C54.7907 28.369 54.9271 28.1643 55.0181 28.0278C57.3827 23.8659 59.1336 20.9321 60.2252 19.2946C62.8407 15.3715 66.0711 11.4484 69.9165 7.52528L70.4309 7.18414C71.4783 6.843 72.2477 6.36541 72.6798 5.71724Z" fill="#F9FAFE"/>
<path d="M83.6105 5.71724C83.8834 5.30787 83.8328 4.83027 83.5862 4.21622C83.2941 3.67039 82.9248 3.36337 82.4328 3.36337C81.8998 3.36337 80.9756 4.01153 79.7059 5.23964C75.2868 9.46978 71.5967 13.8364 68.5947 18.3394C67.8214 19.4993 66.8345 21.1027 65.634 23.1495C65.0741 23.5589 64.4507 24.3094 63.7457 25.3669C62.9725 26.5268 62.5544 27.5844 62.5099 28.5737C62.4244 29.563 62.7802 30.0747 63.6002 30.0747C63.8052 30.0747 64.1194 29.9723 64.5429 29.7677C64.9026 29.5971 65.1803 29.4265 65.294 29.2559C65.3623 29.1536 65.4577 28.9489 65.5987 28.676C65.7213 28.369 65.8578 28.1643 65.9488 28.0278C68.3134 23.8659 70.0643 20.9321 71.1559 19.2946C73.7713 15.3715 77.0017 11.4484 80.8471 7.52528L81.3616 7.18414C82.409 6.843 83.1784 6.36541 83.6105 5.71724Z" fill="#F9FAFE"/>
<path d="M116.371 4.69382C116.962 3.80685 116.766 3.36337 115.782 3.36337C114.921 3.36337 114.161 3.70451 113.542 4.38679C110.638 7.38883 107.008 11.7895 102.695 17.5207C102.243 16.9067 101.733 16.5655 101.118 16.5655C99.3957 16.5655 96.8411 17.6913 93.4359 19.9087C89.9669 22.1602 87.6638 24.1388 86.5494 25.8104C85.7079 27.0726 85.4174 28.062 85.7188 28.7783C85.9974 29.5289 86.8543 29.9041 88.2893 29.9041C89.3553 29.9041 90.8809 29.4606 92.7842 28.5737C94.5601 27.7549 96.0351 26.8338 97.2686 25.8445C95.6773 28.8466 94.7134 30.7228 94.3771 31.4734C93.9498 32.3603 94.1234 32.8379 94.9434 32.8379C95.3124 32.8379 95.7724 32.7015 96.3233 32.4286C96.8332 32.1556 97.2019 31.8486 97.4294 31.5075C97.5203 31.371 97.7612 30.8252 98.234 29.87C99.3112 27.5161 101.021 24.5823 103.386 21.0345C104.637 19.1582 106.425 16.5996 108.809 13.3929C109.296 13.1541 109.728 12.813 110.124 12.4036C110.261 12.1989 110.575 11.7895 110.98 11.2437C111.639 10.2544 112.863 8.7875 114.547 6.87712C115.611 5.64901 116.212 4.93261 116.371 4.69382ZM99.1592 21.4097C98.1351 22.3308 97.3295 23.0472 96.7651 23.5248C95.7046 24.3776 94.5482 25.1281 93.3781 25.7763C91.8893 26.595 90.7371 26.9703 89.9171 26.9703C89.1791 26.9703 89.083 26.5609 89.6516 25.7081C90.2657 24.787 91.4627 23.7295 93.3247 22.5355C96.4068 20.5569 98.319 19.5334 98.975 19.5334C98.975 19.5334 99.0753 19.5675 99.2393 19.5675C98.8895 20.5227 98.8491 21.1368 99.1592 21.4097Z" fill="#F9FAFE"/>
<path d="M122.084 21.2733C122.971 19.9428 123.338 18.7147 123.164 17.623C122.926 16.5655 122.237 15.815 121.075 15.4056C120.592 15.2692 120.31 15.2009 120.228 15.2009C119.9 15.2009 119.417 15.3715 118.743 15.6444C117.987 15.9173 117.4 16.122 117.004 16.2244C115.223 16.8043 113.393 17.8277 111.617 19.2605C109.933 20.5569 108.632 21.9555 107.654 23.4224C106.494 25.1623 106.072 26.595 106.469 27.7208C106.89 28.8125 107.938 29.3924 109.66 29.3924C111.628 29.3924 113.809 28.6419 116.208 27.0726C118.567 25.5034 120.537 23.593 122.084 21.2733ZM118.504 21.785C117.73 22.9448 116.615 24.0024 115.218 24.9917C113.715 26.0151 112.513 26.5268 111.529 26.5268C110.709 26.5268 110.258 26.2198 110.198 25.5716C110.074 24.9576 110.306 24.2412 110.852 23.4224C111.58 22.3308 112.549 21.3074 113.842 20.3522C115.307 19.2605 116.637 18.6806 117.785 18.6806C118.059 18.8853 118.523 18.9876 119.179 18.9876C119.685 19.397 119.459 20.3522 118.504 21.785Z" fill="#F9FAFE"/>
<path d="M143.202 18.9876C143.543 18.4759 143.529 18.0665 143.265 17.7254C142.977 17.4184 142.558 17.2478 142.007 17.2137C137.662 18.7488 133.045 21.0003 128.179 23.9341C129.316 22.2284 130.681 20.4886 132.296 18.6806C133.047 17.8618 133.752 17.1113 134.412 16.4291C134.776 15.8832 134.889 15.4056 134.775 14.9621C134.615 14.5869 134.218 14.3822 133.603 14.3822C133.111 14.3822 132.643 14.6551 132.16 15.1327C129.416 17.896 127.168 20.591 125.394 23.2519C122.688 27.3114 122.166 29.3242 123.888 29.3242C124.298 29.3242 124.913 29.0171 125.687 28.4713C126.206 28.062 126.747 27.6185 127.307 27.2091C129.975 25.2987 133.695 23.286 138.53 21.1368L135.004 25.5034C133.999 26.7656 133.485 27.4138 133.462 27.4479C133.098 27.9937 132.985 28.4713 133.099 28.9148C133.236 29.3242 133.592 29.5289 134.207 29.5289C134.781 29.5289 135.336 29.1877 135.827 28.5737C139.69 23.7636 142.156 20.5569 143.202 18.9876Z" fill="#F9FAFE"/>
<path d="M157.525 28.1643C157.753 27.8232 157.816 27.482 157.716 27.1409C157.57 26.868 157.273 26.6974 156.863 26.6974C156.535 26.6974 155.957 26.7656 155.214 26.8338C154.472 26.9021 153.916 26.9362 153.588 26.9362C152.358 26.9362 151.611 26.4586 151.286 25.4693C156.614 23.6271 160.12 21.4438 161.803 18.9194C162.44 17.9642 162.562 17.0431 162.123 16.2244C161.685 15.4056 160.974 14.9963 159.949 14.9963C158.186 14.9963 156.183 15.8491 153.92 17.5207C151.981 18.9535 150.466 20.4886 149.374 22.1261C149.146 22.4672 148.869 22.9448 148.605 23.5248H147.662C147.088 23.5248 146.669 23.3542 146.323 23.0131C145.976 22.6719 145.68 22.5014 145.434 22.5014C144.368 22.5014 143.516 22.979 142.88 23.9341C142.379 24.6847 142.626 25.2987 143.701 25.7763C144.517 26.1516 145.429 26.3221 146.495 26.3221H147.725C147.631 28.676 149.154 29.8359 152.27 29.8359C155.017 29.8359 156.798 29.2559 157.525 28.1643ZM158.473 19.0558C157.722 20.1816 155.674 21.4097 152.327 22.7402L152.736 22.1261C153.35 21.205 154.105 20.3181 155.084 19.4652C156.176 18.4418 157.091 17.9301 157.829 17.9301C158.157 17.9301 158.394 18.0665 158.586 18.2712C158.65 18.5441 158.655 18.7829 158.473 19.0558Z" fill="#F9FAFE"/>
</svg>
