<svg width="167" height="147" viewBox="0 0 167 147" fill="none" xmlns="http://www.w3.org/2000/svg">
    <path
        d="M68.8418 118.226C66.9877 124.928 63.4869 130.869 60.7879 134.051C59.2316 135.885 55.843 137.008 55.843 137.008L46.6665 139.467C46.6665 139.467 41.8067 141.72 38.5096 141.653C35.7874 141.597 34.1577 141.198 31.7589 139.91C29.1892 138.53 27.0639 137.028 24.8167 134.393C21.6281 130.655 19.5673 122.959 19.5673 122.959L12.1914 95.4322C11.6973 93.5884 11.5243 91.5769 12.4719 89.9198C12.8334 89.2877 13.2951 88.7144 13.8653 88.4242C14.5082 88.097 14.9283 87.9314 15.6496 87.9461C15.9038 87.9513 16.1867 88.062 16.4712 88.2289C17.9341 89.0871 18.5989 90.7963 19.0379 92.4345L23.3224 108.425C23.4174 108.779 23.7818 108.989 24.1363 108.894C24.4872 108.8 24.6976 108.442 24.6087 108.09L16.2988 75.1619C16.0509 74.1795 16.025 73.143 16.4094 72.2056C16.8873 71.0398 17.7365 69.5199 19.0437 69.0051C19.0437 69.0051 20.3502 68.2881 21.4062 68.6453C22.1216 68.8873 22.8657 69.5979 23.4247 70.2384C24.0718 70.9799 24.4632 71.8974 24.7179 72.848L31.983 99.9619C32.1339 100.525 32.7127 100.859 33.2759 100.708C33.839 100.557 34.1732 99.9786 34.0223 99.4154L25.1216 66.1975C24.8205 65.0739 24.7297 63.8903 25.0818 62.7816C25.4295 61.6871 26.0213 60.3669 26.9542 59.7822C27.9148 59.1801 28.6263 58.9683 29.7582 59.0309C31.3973 59.1215 32.9017 61.1054 33.6388 62.2529C33.9742 62.7751 34.1958 63.3569 34.3564 63.9564L42.4816 94.2801C42.6137 94.7728 43.1201 95.0652 43.6129 94.9332C44.1056 94.8012 44.398 94.2947 44.266 93.802L36.9948 66.6657C36.8565 66.1493 36.7465 65.6214 36.7906 65.0887C36.8793 64.0175 37.3491 62.1878 39.4677 61.6201C42.0154 60.9374 43.7693 62.0666 44.727 63.0104C45.3775 63.6516 45.71 64.5244 45.9464 65.4067L54.6061 97.7249C54.6061 97.7249 57.4358 102.437 60.1189 101.985C62.4585 101.591 63.467 99.7063 65.0437 97.9334C67.3813 95.3049 67.5706 92.8314 70.6284 91.2461C73.5361 89.7387 75.6903 89.0015 78.617 90.4716C81.0484 91.6928 81.5991 96.5027 81.5991 96.5027L75.418 101.984C75.418 101.984 72.4567 106.099 71.3127 109.094C70.0465 112.41 69.7881 114.805 68.8418 118.226Z"
        fill="#C98D40" />
    <g filter="url(#filter0_f_1081_2046)">
        <path
            d="M68.3274 117.778C66.5364 124.315 62.6213 130.067 60.005 133.168C58.4965 134.956 55.732 136.086 55.732 136.086L46.8255 138.472C46.8255 138.472 42.1101 140.664 38.9087 140.594C36.2655 140.535 34.6826 140.144 32.3518 138.884C29.8549 137.534 27.7894 136.066 25.6039 133.493C22.5029 129.841 20.4915 122.33 20.4915 122.33L13.307 95.5167C12.8153 93.6818 12.6341 91.6758 13.5878 90.0328C13.9333 89.4376 14.371 88.9025 14.9083 88.6282C15.5321 88.3098 15.9398 88.1489 16.6401 88.1642C16.8735 88.1693 17.1318 88.2664 17.3929 88.4149C18.8599 89.2491 19.5119 90.9648 19.9487 92.5949L24.1187 108.158C24.2109 108.502 24.5646 108.706 24.9087 108.614C25.2492 108.523 25.4534 108.175 25.3671 107.833L17.2604 75.7209C17.0136 74.7432 16.9858 73.7116 17.3685 72.7787C17.8331 71.646 18.6523 70.1854 19.9099 69.6892C19.9099 69.6892 21.1774 68.9914 22.2032 69.3414C22.89 69.5757 23.6046 70.2565 24.146 70.8763C24.79 71.6137 25.1782 72.5274 25.4316 73.4731L32.5167 99.915C32.6631 100.462 33.2249 100.786 33.7714 100.639C34.318 100.493 34.6423 99.9312 34.4959 99.3847L25.8159 66.9904C25.5163 65.8724 25.4239 64.6942 25.7749 63.5912C26.1124 62.5307 26.6826 61.2648 27.5779 60.7017C28.5097 60.1156 29.2003 59.9099 30.2994 59.9725C31.884 60.0627 33.3415 61.9838 34.0621 63.1065C34.3955 63.626 34.6154 64.2048 34.7752 64.801L42.7022 94.3852C42.8304 94.8635 43.3219 95.1473 43.8001 95.0191C44.2784 94.891 44.5622 94.3994 44.434 93.9212L37.3399 67.4455C37.2023 66.932 37.0925 66.4065 37.1369 65.8768C37.2248 64.8298 37.6841 63.0601 39.7302 62.5118C42.1865 61.8537 43.8846 62.9387 44.8198 63.857C45.468 64.4935 45.7973 65.3622 46.0324 66.2397L54.4776 97.7577C54.4776 97.7577 57.2315 102.359 59.836 101.922C62.1071 101.54 63.0837 99.7029 64.6122 97.9753C66.8783 95.4141 67.0586 93.001 70.0255 91.4585C72.8466 89.9917 74.9371 89.2755 77.7808 90.7137C80.1431 91.9085 80.6844 96.6019 80.6844 96.6019L74.6904 101.941C74.6904 101.941 71.8208 105.952 70.7141 108.873C69.4892 112.106 69.2416 114.442 68.3274 117.778Z"
            fill="#FFD152" fill-opacity="0.69" />
        <path
            d="M46.7349 138.134L46.7056 138.142L46.678 138.155L46.678 138.155L46.6775 138.155L46.6752 138.156L46.6658 138.161L46.6271 138.178C46.5928 138.194 46.5416 138.217 46.4751 138.246C46.3421 138.305 46.1478 138.389 45.9045 138.49C45.4175 138.693 44.7353 138.962 43.9545 139.228C42.3815 139.765 40.4517 140.278 38.9164 140.244C36.3257 140.187 34.7977 139.808 32.5182 138.576C30.0509 137.242 28.0223 135.8 25.8707 133.266C24.3611 131.489 23.1001 128.746 22.2119 126.417C21.7698 125.258 21.4239 124.213 21.1884 123.457C21.0708 123.079 20.9808 122.773 20.9204 122.563C20.8902 122.458 20.8674 122.377 20.8522 122.322L20.8351 122.26L20.8309 122.244L20.8299 122.24L20.8297 122.24L20.8296 122.239L13.645 95.4261C13.1597 93.615 13.0093 91.7266 13.8905 90.2085C14.2232 89.6354 14.6187 89.169 15.0675 88.94C15.668 88.6334 16.0152 88.5006 16.6325 88.5141C16.7817 88.5174 16.9802 88.5829 17.2198 88.7191C18.549 89.475 19.1733 91.0534 19.6106 92.6855L23.7807 108.248C23.9229 108.779 24.4685 109.094 24.9992 108.952C25.5246 108.811 25.8396 108.275 25.7064 107.747L17.5997 75.6352C17.3647 74.7041 17.3467 73.7538 17.6923 72.9115C17.9183 72.3606 18.2264 71.7407 18.6234 71.2032C19.0218 70.6636 19.4931 70.2299 20.0383 70.0148L20.0591 70.0066L20.0782 69.9961C20.0782 69.9961 20.0782 69.9961 20.0783 69.9961L20.0784 69.996L20.0785 69.9959L20.0787 69.9958L20.0796 69.9953L20.0876 69.9911C20.0952 69.9871 20.1072 69.9808 20.1233 69.9727C20.1556 69.9565 20.2042 69.933 20.2661 69.9055C20.3905 69.8502 20.5662 69.7799 20.7705 69.7199C21.1904 69.5966 21.6791 69.5324 22.0902 69.6726C22.6804 69.874 23.342 70.4879 23.8824 71.1066C24.4784 71.789 24.8478 72.6468 25.0935 73.5636L32.1786 100.006C32.3751 100.739 33.1288 101.174 33.862 100.978C34.5953 100.781 35.0304 100.027 34.834 99.2941L26.154 66.8999C25.8645 65.8197 25.7847 64.7145 26.1084 63.6974C26.2728 63.1809 26.4909 62.6243 26.7712 62.1335C27.0534 61.6394 27.3847 61.2367 27.7643 60.9979C28.2131 60.7157 28.5864 60.5361 28.9684 60.4314C29.3492 60.327 29.757 60.2922 30.2795 60.3219C30.9439 60.3598 31.6273 60.7898 32.2613 61.4038C32.8863 62.009 33.4141 62.7448 33.7675 63.2956C34.0752 63.775 34.2831 64.317 34.4371 64.8916L42.3641 94.4758C42.5423 95.1408 43.2258 95.5354 43.8907 95.3572C44.5557 95.179 44.9503 94.4955 44.7721 93.8306L37.678 67.3549C37.5423 66.8488 37.4466 66.3723 37.4857 65.9061C37.5697 64.9052 37.995 63.3391 39.8208 62.8499C42.1159 62.2349 43.6921 63.2402 44.5745 64.1067C45.1534 64.6751 45.463 65.4671 45.6943 66.3303L54.1396 97.8483L54.1522 97.8955L54.1773 97.9375L54.4776 97.7577C54.1773 97.9375 54.1774 97.9376 54.1774 97.9377L54.1776 97.938L54.1781 97.9389L54.18 97.9419L54.1866 97.9529L54.2116 97.9936C54.2334 98.0288 54.2654 98.0797 54.3067 98.144C54.3894 98.2724 54.5098 98.4545 54.6624 98.6713C54.9671 99.104 55.4025 99.6787 55.9233 100.241C56.4422 100.802 57.0568 101.363 57.7216 101.757C58.3849 102.149 59.1307 102.395 59.8939 102.267C61.1237 102.06 61.9985 101.456 62.7507 100.7C63.1237 100.325 63.4696 99.9096 63.8122 99.4878C63.8736 99.4122 63.9348 99.3364 63.9961 99.2606C64.2799 98.9095 64.5653 98.5565 64.8743 98.2073C65.7533 97.2138 66.3345 96.2293 66.8601 95.339C67.0273 95.0558 67.1889 94.7821 67.3527 94.5207C68.0341 93.4328 68.7799 92.5006 70.1869 91.7691C71.5937 91.0376 72.7773 90.5164 73.9461 90.3429C75.099 90.1719 76.2598 90.3366 77.6229 91.026C78.137 91.2861 78.5716 91.7474 78.935 92.3243C79.2973 92.8996 79.5757 93.5692 79.7857 94.2142C79.9952 94.8578 80.1334 95.4668 80.2191 95.9156C80.2619 96.1397 80.2915 96.3229 80.3103 96.4494C80.3111 96.4545 80.3118 96.4595 80.3126 96.4645L74.4576 101.68L74.4285 101.706L74.4058 101.737L74.6904 101.941C74.4058 101.737 74.4057 101.737 74.4057 101.738L74.4056 101.738L74.4051 101.738L74.4034 101.741L74.397 101.75L74.3722 101.785C74.3505 101.815 74.3188 101.86 74.2781 101.919C74.1966 102.035 74.0793 102.205 73.9352 102.417C73.647 102.841 73.2512 103.438 72.8205 104.126C71.9626 105.497 70.953 107.254 70.3868 108.749C69.7668 110.386 69.3945 111.794 69.0635 113.207C68.9718 113.598 68.8835 113.989 68.7942 114.384C68.5603 115.418 68.319 116.485 67.9899 117.686C66.2169 124.156 62.3347 129.864 59.7375 132.942C59.022 133.79 57.9947 134.496 57.1283 134.994C56.6981 135.241 56.3139 135.434 56.0377 135.565C55.8998 135.63 55.789 135.68 55.7133 135.713C55.6937 135.722 55.6765 135.729 55.6617 135.736C55.648 135.741 55.6365 135.746 55.6272 135.75L55.6188 135.754L46.7349 138.134Z"
            stroke="#D4871A" stroke-width="0.7" />
    </g>
    <g filter="url(#filter1_f_1081_2046)">
        <path
            d="M33.9633 118.563C36.9606 120.736 41.0562 120.197 43.4363 122.308C46.4751 125.003 47.2799 130.316 45.4961 132.776C42.3152 137.164 34.2044 136.71 27.38 131.762C20.5557 126.815 17.602 119.247 20.7829 114.86C23.9637 110.472 27.139 113.615 33.9633 118.563Z"
            fill="#FFD665" fill-opacity="0.3" />
    </g>
    <g opacity="0.76" filter="url(#filter2_f_1081_2046)">
        <path
            d="M50.7029 115.713C47.1195 123.739 47.3666 131.629 51.2634 133.369C53.8224 134.512 60.7785 129.62 64.7828 120.412C66.8765 115.598 65.0439 105.283 66.2742 102.528C67.4793 99.8284 70.908 96.645 71.8406 94.7525C73.2834 92.9998 75.0191 93.0167 72.4328 91.862C70.5886 91.0387 67.8674 98.2762 61.8546 102.346C56.5343 107.88 52.5904 111.485 50.7029 115.713Z"
            fill="#FFD665" fill-opacity="0.3" />
    </g>
    <path
        d="M97.6055 118.226C99.4595 124.928 102.96 130.869 105.659 134.051C107.216 135.885 110.604 137.008 110.604 137.008L119.781 139.467C119.781 139.467 124.641 141.72 127.938 141.653C130.66 141.597 132.29 141.198 134.688 139.91C137.258 138.53 139.383 137.028 141.631 134.393C144.819 130.655 146.88 122.959 146.88 122.959L154.256 95.4322C154.75 93.5884 154.923 91.5769 153.975 89.9198C153.614 89.2877 153.152 88.7144 152.582 88.4242C151.939 88.097 151.519 87.9314 150.798 87.9461C150.543 87.9513 150.261 88.062 149.976 88.2289C148.513 89.0871 147.848 90.7963 147.409 92.4345L143.125 108.425C143.03 108.779 142.665 108.989 142.311 108.894C141.96 108.8 141.75 108.442 141.839 108.09L150.148 75.1619C150.396 74.1795 150.422 73.143 150.038 72.2056C149.56 71.0398 148.711 69.5199 147.404 69.0051C147.404 69.0051 146.097 68.2881 145.041 68.6453C144.326 68.8873 143.582 69.5979 143.023 70.2384C142.375 70.9799 141.984 71.8974 141.729 72.848L134.464 99.9619C134.313 100.525 133.735 100.859 133.171 100.708C132.608 100.557 132.274 99.9786 132.425 99.4154L141.326 66.1975C141.627 65.0739 141.718 63.8903 141.365 62.7816C141.018 61.6871 140.426 60.3669 139.493 59.7822C138.532 59.1801 137.821 58.9683 136.689 59.0309C135.05 59.1215 133.546 61.1054 132.809 62.2529C132.473 62.7751 132.251 63.3569 132.091 63.9564L123.966 94.2801C123.834 94.7728 123.327 95.0652 122.834 94.9332C122.342 94.8012 122.049 94.2947 122.181 93.802L129.452 66.6657C129.591 66.1493 129.701 65.6214 129.657 65.0887C129.568 64.0175 129.098 62.1878 126.98 61.6201C124.432 60.9374 122.678 62.0666 121.72 63.0104C121.07 63.6516 120.737 64.5244 120.501 65.4067L111.841 97.7249C111.841 97.7249 109.011 102.437 106.328 101.985C103.989 101.591 102.98 99.7063 101.404 97.9334C99.0659 95.3049 98.8767 92.8314 95.8189 91.2461C92.9112 89.7387 90.757 89.0015 87.8302 90.4716C85.3989 91.6928 84.8482 96.5027 84.8482 96.5027L91.0293 101.984C91.0293 101.984 93.9906 106.099 95.1345 109.094C96.4007 112.41 96.6592 114.805 97.6055 118.226Z"
        fill="#C98D40" />
    <g filter="url(#filter3_f_1081_2046)">
        <path
            d="M98.1198 117.778C99.9109 124.315 103.826 130.067 106.442 133.168C107.951 134.956 110.715 136.086 110.715 136.086L119.622 138.472C119.622 138.472 124.337 140.664 127.539 140.594C130.182 140.535 131.765 140.144 134.095 138.884C136.592 137.534 138.658 136.066 140.843 133.493C143.944 129.841 145.956 122.33 145.956 122.33L153.14 95.5167C153.632 93.6818 153.813 91.6758 152.859 90.0328C152.514 89.4376 152.076 88.9025 151.539 88.6282C150.915 88.3098 150.507 88.1489 149.807 88.1642C149.574 88.1693 149.315 88.2664 149.054 88.4149C147.587 89.2491 146.935 90.9648 146.499 92.5949L142.329 108.158C142.236 108.502 141.883 108.706 141.539 108.614C141.198 108.523 140.994 108.175 141.08 107.833L149.187 75.7209C149.434 74.7432 149.461 73.7116 149.079 72.7787C148.614 71.646 147.795 70.1854 146.537 69.6892C146.537 69.6892 145.27 68.9914 144.244 69.3414C143.557 69.5757 142.843 70.2565 142.301 70.8763C141.657 71.6137 141.269 72.5274 141.016 73.4731L133.931 99.915C133.784 100.462 133.222 100.786 132.676 100.639C132.129 100.493 131.805 99.9312 131.951 99.3847L140.631 66.9904C140.931 65.8724 141.023 64.6942 140.672 63.5912C140.335 62.5307 139.765 61.2648 138.869 60.7017C137.938 60.1156 137.247 59.9099 136.148 59.9725C134.563 60.0627 133.106 61.9838 132.385 63.1065C132.052 63.626 131.832 64.2048 131.672 64.801L123.745 94.3852C123.617 94.8635 123.125 95.1473 122.647 95.0191C122.169 94.891 121.885 94.3994 122.013 93.9212L129.107 67.4455C129.245 66.932 129.355 66.4065 129.31 65.8768C129.222 64.8298 128.763 63.0601 126.717 62.5118C124.261 61.8537 122.563 62.9387 121.628 63.857C120.979 64.4935 120.65 65.3622 120.415 66.2397L111.97 97.7577C111.97 97.7577 109.216 102.359 106.611 101.922C104.34 101.54 103.364 99.7029 101.835 97.9753C99.569 95.4141 99.3886 93.001 96.4218 91.4585C93.6007 89.9917 91.5101 89.2755 88.6664 90.7137C86.3041 91.9085 85.7629 96.6019 85.7629 96.6019L91.7569 101.941C91.7569 101.941 94.6265 105.952 95.7331 108.873C96.958 112.106 97.2057 114.442 98.1198 117.778Z"
            fill="#FFD152" fill-opacity="0.69" />
        <path
            d="M119.712 138.134L119.742 138.142L119.769 138.155L119.769 138.155L119.77 138.155L119.772 138.156L119.782 138.161L119.82 138.178C119.855 138.194 119.906 138.217 119.972 138.246C120.105 138.305 120.299 138.389 120.543 138.49C121.03 138.693 121.712 138.962 122.493 139.228C124.066 139.765 125.996 140.278 127.531 140.244C130.122 140.187 131.65 139.808 133.929 138.576C136.396 137.242 138.425 135.8 140.577 133.266C142.086 131.489 143.347 128.746 144.235 126.417C144.677 125.258 145.023 124.213 145.259 123.457C145.376 123.079 145.466 122.773 145.527 122.563C145.557 122.458 145.58 122.377 145.595 122.322L145.612 122.26L145.616 122.244L145.617 122.24L145.618 122.24L145.618 122.239L152.802 95.4261C153.288 93.615 153.438 91.7266 152.557 90.2085C152.224 89.6354 151.829 89.169 151.38 88.94C150.779 88.6334 150.432 88.5006 149.815 88.5141C149.666 88.5174 149.467 88.5829 149.227 88.7191C147.898 89.475 147.274 91.0534 146.837 92.6855L142.667 108.248C142.524 108.779 141.979 109.094 141.448 108.952C140.923 108.811 140.608 108.275 140.741 107.747L148.848 75.6352C149.083 74.7041 149.101 73.7538 148.755 72.9115C148.529 72.3606 148.221 71.7407 147.824 71.2032C147.425 70.6636 146.954 70.2299 146.409 70.0148L146.388 70.0066L146.369 69.9961C146.369 69.9961 146.369 69.9961 146.369 69.9961L146.369 69.996L146.369 69.9959L146.369 69.9958L146.368 69.9953L146.36 69.9911C146.352 69.9871 146.34 69.9808 146.324 69.9727C146.292 69.9565 146.243 69.933 146.181 69.9055C146.057 69.8502 145.881 69.7799 145.677 69.7199C145.257 69.5966 144.768 69.5324 144.357 69.6726C143.767 69.874 143.105 70.4879 142.565 71.1066C141.969 71.789 141.599 72.6468 141.354 73.5636L134.269 100.006C134.072 100.739 133.318 101.174 132.585 100.978C131.852 100.781 131.417 100.027 131.613 99.2941L140.293 66.8999C140.583 65.8197 140.663 64.7145 140.339 63.6974C140.174 63.1809 139.956 62.6243 139.676 62.1335C139.394 61.6394 139.063 61.2367 138.683 60.9979C138.234 60.7157 137.861 60.5361 137.479 60.4314C137.098 60.327 136.69 60.2922 136.168 60.3219C135.503 60.3598 134.82 60.7898 134.186 61.4038C133.561 62.009 133.033 62.7448 132.68 63.2956C132.372 63.775 132.164 64.317 132.01 64.8916L124.083 94.4758C123.905 95.1408 123.221 95.5354 122.557 95.3572C121.892 95.179 121.497 94.4955 121.675 93.8306L128.769 67.3549C128.905 66.8488 129.001 66.3723 128.962 65.9061C128.878 64.9052 128.452 63.3391 126.626 62.8499C124.331 62.2349 122.755 63.2402 121.873 64.1067C121.294 64.6751 120.984 65.4671 120.753 66.3303L112.308 97.8483L112.295 97.8955L112.27 97.9375L111.97 97.7577C112.27 97.9375 112.27 97.9376 112.27 97.9377L112.27 97.938L112.269 97.9389L112.267 97.9419L112.261 97.9529L112.236 97.9936C112.214 98.0288 112.182 98.0797 112.141 98.144C112.058 98.2724 111.937 98.4545 111.785 98.6713C111.48 99.104 111.045 99.6787 110.524 100.241C110.005 100.802 109.39 101.363 108.726 101.757C108.062 102.149 107.317 102.395 106.553 102.267C105.324 102.06 104.449 101.456 103.697 100.7C103.324 100.325 102.978 99.9096 102.635 99.4878C102.574 99.4122 102.512 99.3364 102.451 99.2606C102.167 98.9095 101.882 98.5565 101.573 98.2073C100.694 97.2138 100.113 96.2293 99.5871 95.339C99.4199 95.0558 99.2583 94.7821 99.0946 94.5207C98.4132 93.4328 97.6674 92.5006 96.2604 91.7691C94.8535 91.0376 93.6699 90.5164 92.5012 90.3429C91.3483 90.1719 90.1875 90.3366 88.8244 91.026C88.3103 91.2861 87.8757 91.7474 87.5123 92.3243C87.15 92.8996 86.8716 93.5692 86.6616 94.2142C86.4521 94.8578 86.3139 95.4668 86.2281 95.9156C86.1853 96.1397 86.1557 96.3229 86.1369 96.4494C86.1362 96.4545 86.1354 96.4595 86.1347 96.4645L91.9897 101.68L92.0188 101.706L92.0415 101.737L91.7569 101.941C92.0415 101.737 92.0415 101.737 92.0416 101.738L92.0417 101.738L92.0422 101.738L92.0438 101.741L92.0503 101.75L92.0751 101.785C92.0967 101.815 92.1285 101.86 92.1692 101.919C92.2506 102.035 92.368 102.205 92.5121 102.417C92.8003 102.841 93.196 103.438 93.6267 104.126C94.4846 105.497 95.4943 107.254 96.0604 108.749C96.6805 110.386 97.0527 111.794 97.3838 113.207C97.4755 113.598 97.5637 113.989 97.653 114.384C97.887 115.418 98.1282 116.485 98.4574 117.686C100.23 124.156 104.113 129.864 106.71 132.942C107.425 133.79 108.453 134.496 109.319 134.994C109.749 135.241 110.133 135.434 110.41 135.565C110.548 135.63 110.658 135.68 110.734 135.713C110.754 135.722 110.771 135.729 110.786 135.736C110.799 135.741 110.811 135.746 110.82 135.75L110.828 135.754L119.712 138.134Z"
            stroke="#D4871A" stroke-width="0.7" />
    </g>
    <g filter="url(#filter4_f_1081_2046)">
        <path
            d="M132.484 118.563C129.487 120.736 125.391 120.197 123.011 122.308C119.972 125.003 119.167 130.316 120.951 132.776C124.132 137.164 132.243 136.71 139.067 131.762C145.892 126.815 148.845 119.247 145.664 114.86C142.484 110.472 139.308 113.615 132.484 118.563Z"
            fill="#FFD665" fill-opacity="0.3" />
    </g>
    <g opacity="0.76" filter="url(#filter5_f_1081_2046)">
        <path
            d="M115.742 115.713C119.326 123.739 119.079 131.629 115.182 133.369C112.623 134.512 105.667 129.62 101.662 120.412C99.5688 115.598 101.401 105.283 100.171 102.528C98.966 99.8284 95.5373 96.645 94.6047 94.7525C93.1619 92.9998 91.4262 93.0167 94.0126 91.862C95.8567 91.0387 98.5779 98.2762 104.591 102.346C109.911 107.88 113.855 111.485 115.742 115.713Z"
            fill="#FFD665" fill-opacity="0.3" />
    </g>
    <path d="M25.9001 31.5L43.796 48.475H16.0996L25.9001 31.5Z" fill="#FAFAFA" fill-opacity="0.7" />
    <path d="M68.2941 7.15777L68.1208 31.8232L49.202 11.5952L68.2941 7.15777Z" fill="#FAFAFA" fill-opacity="0.7" />
    <path d="M98.3055 7.15777L98.4788 31.8232L117.398 11.5952L98.3055 7.15777Z" fill="#FAFAFA" fill-opacity="0.7" />
    <path d="M140.699 31.5L122.804 48.475H150.5L140.699 31.5Z" fill="#FAFAFA" fill-opacity="0.7" />
    <defs>
        <filter id="filter0_f_1081_2046" x="11.5043" y="58.5619" width="70.5793" height="83.4333"
            filterUnits="userSpaceOnUse" color-interpolation-filters="sRGB">
            <feFlood flood-opacity="0" result="BackgroundImageFix" />
            <feBlend mode="normal" in="SourceGraphic" in2="BackgroundImageFix" result="shape" />
            <feGaussianBlur stdDeviation="0.7" result="effect1_foregroundBlur_1081_2046" />
        </filter>
        <filter id="filter1_f_1081_2046" x="16.7039" y="109.97" width="32.5297" height="28.6215"
            filterUnits="userSpaceOnUse" color-interpolation-filters="sRGB">
            <feFlood flood-opacity="0" result="BackgroundImageFix" />
            <feBlend mode="normal" in="SourceGraphic" in2="BackgroundImageFix" result="shape" />
            <feGaussianBlur stdDeviation="1.4" result="effect1_foregroundBlur_1081_2046" />
        </filter>
        <filter id="filter2_f_1081_2046" x="45.3699" y="88.9974" width="31.1918" height="47.3354"
            filterUnits="userSpaceOnUse" color-interpolation-filters="sRGB">
            <feFlood flood-opacity="0" result="BackgroundImageFix" />
            <feBlend mode="normal" in="SourceGraphic" in2="BackgroundImageFix" result="shape" />
            <feGaussianBlur stdDeviation="1.4" result="effect1_foregroundBlur_1081_2046" />
        </filter>
        <filter id="filter3_f_1081_2046" x="84.3637" y="58.5619" width="70.5793" height="83.4333"
            filterUnits="userSpaceOnUse" color-interpolation-filters="sRGB">
            <feFlood flood-opacity="0" result="BackgroundImageFix" />
            <feBlend mode="normal" in="SourceGraphic" in2="BackgroundImageFix" result="shape" />
            <feGaussianBlur stdDeviation="0.7" result="effect1_foregroundBlur_1081_2046" />
        </filter>
        <filter id="filter4_f_1081_2046" x="117.214" y="109.97" width="32.5297" height="28.6215"
            filterUnits="userSpaceOnUse" color-interpolation-filters="sRGB">
            <feFlood flood-opacity="0" result="BackgroundImageFix" />
            <feBlend mode="normal" in="SourceGraphic" in2="BackgroundImageFix" result="shape" />
            <feGaussianBlur stdDeviation="1.4" result="effect1_foregroundBlur_1081_2046" />
        </filter>
        <filter id="filter5_f_1081_2046" x="89.8836" y="88.9974" width="31.1918" height="47.3354"
            filterUnits="userSpaceOnUse" color-interpolation-filters="sRGB">
            <feFlood flood-opacity="0" result="BackgroundImageFix" />
            <feBlend mode="normal" in="SourceGraphic" in2="BackgroundImageFix" result="shape" />
            <feGaussianBlur stdDeviation="1.4" result="effect1_foregroundBlur_1081_2046" />
        </filter>
    </defs>
</svg>