<svg viewBox="0 0 280 263" fill="none" xmlns="http://www.w3.org/2000/svg">
    <g filter="url(#filter0_d_51_2288)">
        <path
            d="M122.406 170.715C122.187 172.673 123.177 174.572 124.921 175.489C149.015 188.163 173.576 196.332 194.712 198.672C216.69 201.105 233.605 197.085 242.574 187.297C251.544 177.509 252.013 162.558 243.902 144.993C235.791 127.427 219.602 108.334 198.092 90.965C176.583 73.5963 151.085 59.0275 125.943 49.7407C100.8 40.4539 77.5687 37.0239 60.2069 40.0351C42.845 43.0462 32.427 52.3122 30.7278 66.2542C29.0493 80.0266 35.9814 97.5202 50.354 115.819C50.6955 116.254 51.1893 116.548 51.7341 116.642C53.8266 117.007 55.2722 114.489 54.0042 112.785C41.7226 96.2791 40.7101 81.4046 41.8221 72.2807C43.0441 62.2536 56.721 52.0737 80.7555 54.8424C100.963 56.4698 111.827 62.5566 129.91 69.2357C147.993 75.9148 166.331 86.3928 181.8 98.8843C197.27 111.376 208.913 125.108 214.747 137.741C220.58 150.375 220.243 161.127 213.792 168.167C207.341 175.206 188.845 176.776 173.146 171.759C168.1 170.147 172.318 171.981 157.113 165.778C141.795 159.527 139.321 158.211 131.665 152.705C128.66 150.543 124.448 152.398 124.038 156.077L122.406 170.715Z"
            fill="url(#paint0_diamond_51_2288)" />
        <path
            d="M135.96 113.511C138.513 109.576 144.611 111.21 144.854 115.894L146.199 141.793C146.308 143.888 147.754 145.674 149.78 146.217L174.809 152.923C179.336 154.136 179.668 160.433 175.294 162.116L151.081 171.432C149.126 172.184 147.877 174.108 147.986 176.2L149.332 202.122C149.575 206.805 143.683 209.062 140.734 205.416L124.447 185.27C123.127 183.638 120.905 183.042 118.945 183.796L94.7674 193.099C90.3908 194.783 86.4169 189.881 88.969 185.947L103.096 164.172C104.235 162.414 104.116 160.123 102.799 158.494L86.4878 138.32C83.5412 134.675 86.9773 129.389 91.5043 130.602L116.533 137.308C118.559 137.851 120.705 137.027 121.846 135.267L135.96 113.511Z"
            fill="url(#paint1_linear_51_2288)" />
    </g>
    <defs>
        <filter id="filter0_d_51_2288" x="0.480469" y="12.9717" width="279.18" height="228.253"
            filterUnits="userSpaceOnUse" color-interpolation-filters="sRGB">
            <feFlood flood-opacity="0" result="BackgroundImageFix" />
            <feColorMatrix in="SourceAlpha" type="matrix" values="0 0 0 0 0 0 0 0 0 0 0 0 0 0 0 0 0 0 127 0"
                result="hardAlpha" />
            <feOffset dy="4" />
            <feGaussianBlur stdDeviation="15" />
            <feComposite in2="hardAlpha" operator="out" />
            <feColorMatrix type="matrix" values="0 0 0 0 0 0 0 0 0 0 0 0 0 0 0 0 0 0 0.08 0" />
            <feBlend mode="normal" in2="BackgroundImageFix" result="effect1_dropShadow_51_2288" />
            <feBlend mode="normal" in="SourceGraphic" in2="effect1_dropShadow_51_2288" result="shape" />
        </filter>
        <radialGradient id="paint0_diamond_51_2288" cx="0" cy="0" r="1" gradientUnits="userSpaceOnUse"
            gradientTransform="translate(225.376 160.758) rotate(-148.261) scale(219.5 90.4721)">
            <stop stop-color="#F2E186" />
            <stop offset="1" stop-color="#E8A324" />
        </radialGradient>
        <linearGradient id="paint1_linear_51_2288" x1="144.08" y1="100.994" x2="104.038" y2="238.427"
            gradientUnits="userSpaceOnUse">
            <stop stop-color="#FFEE97" />
            <stop offset="1" stop-color="#E8A324" />
        </linearGradient>
    </defs>
</svg>